<svg xmlns="http://www.w3.org/2000/svg" fill="none" viewBox="-1.335 -1.335 64 64" id="Notes-Book--Streamline-Ultimate.svg" height="64" width="64"><desc>Notes Book Streamline Icon: https://streamlinehq.com</desc><path fill="#c77f67" d="M45.390333 2.5554166666666664H10.587908983333334c-1.478512975 0 -2.677105608333333 1.1985926333333332 -2.677105608333333 2.677105608333333V56.09752883333333c0 1.4785640833333331 1.1985926333333332 2.6770545 2.677105608333333 2.6770545H45.390333c1.4785640833333331 0 2.6770545 -1.1984904166666666 2.6770545 -2.6770545V5.232522275C48.067387499999995 3.7540092999999994 46.86889708333333 2.5554166666666664 45.390333 2.5554166666666664Z" stroke-width="2.67"></path><path fill="#fff" d="M37.356869624999995 22.633734283333332c0 0.3549984833333333 -0.141059 0.6954821999999999 -0.39174537499999995 0.9464752249999999 -0.2511974583333333 0.2510441333333333 -0.5918344999999999 0.39207757916666663 -0.9467818749999999 0.39207757916666663H22.632865441666667c-0.35502403749999994 0 -0.6954821999999999 -0.14103344583333333 -0.9465007791666665 -0.39207757916666663 -0.25101857916666664 -0.250993025 -0.39205202499999997 -0.5914767416666666 -0.39205202499999997 -0.9464752249999999V14.602417458333331c0 -0.3549984833333333 0.14103344583333333 -0.6954821999999999 0.39205202499999997 -0.9465007791666665 0.25101857916666664 -0.25101857916666664 0.5914767416666666 -0.39205202499999997 0.9465007791666665 -0.39205202499999997h13.385476933333333c0.35494737499999995 0 0.6955844166666666 0.14103344583333333 0.9467818749999999 0.39205202499999997 0.250686375 0.25101857916666664 0.39174537499999995 0.5915022958333334 0.39174537499999995 0.9465007791666665v8.031316825Z" stroke-width="2.67"></path><path stroke="#191919" stroke-linecap="round" stroke-linejoin="round" d="M5.231857866666666 10.5867079375h8.031316825" stroke-width="2.67"></path><path stroke="#191919" stroke-linecap="round" stroke-linejoin="round" d="M5.231857866666666 23.972210425h8.031316825" stroke-width="2.67"></path><path stroke="#191919" stroke-linecap="round" stroke-linejoin="round" d="M5.231857866666666 37.35789179166666h8.031316825" stroke-width="2.67"></path><path stroke="#191919" stroke-linecap="round" stroke-linejoin="round" d="M5.231857866666666 50.74316429166666h8.031316825" stroke-width="2.67"></path><path fill="#66e1ff" d="M56.09880654166666 10.5867079375v8.031316825h-8.031163499999998V7.909602329166666h5.354109c0.7098947499999999 0 1.3909132916666667 0.28206689166666665 1.8930526666666665 0.7841040499999999 0.5018838333333333 0.5020627125 0.7840018333333333 1.1829790375 0.7840018333333333 1.893001558333333Z" stroke-width="2.67"></path><path fill="#ffef5e" d="M56.09880654166666 18.618050316666665h-8.031163499999998v10.708422433333332h8.031163499999998V18.618050316666665Z" stroke-width="2.67"></path><path fill="#ff808c" d="M56.09880654166666 29.326472749999997h-8.031163499999998v10.708473541666667h8.031163499999998v-10.708473541666667Z" stroke-width="2.67"></path><path fill="#B2FFC0" d="M56.09880654166666 40.034946291666664v8.031163499999998c0 0.7098947499999999 -0.282118 1.3911688333333332 -0.7840018333333333 1.8930526666666665 -0.5021393749999999 0.5018838333333333 -1.1831579166666666 0.7840018333333333 -1.8930526666666665 0.7840018333333333h-5.354109v-10.708218h8.031163499999998Z" stroke-width="2.67"></path><path stroke="#191919" stroke-linecap="round" stroke-linejoin="round" d="M45.390333 2.5554166666666664H10.587908983333334c-1.478512975 0 -2.677105608333333 1.1985926333333332 -2.677105608333333 2.677105608333333V56.09752883333333c0 1.4785640833333331 1.1985926333333332 2.6770545 2.677105608333333 2.6770545H45.390333c1.4785640833333331 0 2.6770545 -1.1984904166666666 2.6770545 -2.6770545V5.232522275C48.067387499999995 3.7540092999999994 46.86889708333333 2.5554166666666664 45.390333 2.5554166666666664Z" stroke-width="2.67"></path><path stroke="#191919" stroke-linecap="round" stroke-linejoin="round" d="M37.356869624999995 22.633734283333332c0 0.3549984833333333 -0.141059 0.6954821999999999 -0.39174537499999995 0.9464752249999999 -0.2511974583333333 0.2510441333333333 -0.5918344999999999 0.39207757916666663 -0.9467818749999999 0.39207757916666663H22.632865441666667c-0.35502403749999994 0 -0.6954821999999999 -0.14103344583333333 -0.9465007791666665 -0.39207757916666663 -0.25101857916666664 -0.250993025 -0.39205202499999997 -0.5914767416666666 -0.39205202499999997 -0.9464752249999999V14.602417458333331c0 -0.3549984833333333 0.14103344583333333 -0.6954821999999999 0.39205202499999997 -0.9465007791666665 0.25101857916666664 -0.25101857916666664 0.5914767416666666 -0.39205202499999997 0.9465007791666665 -0.39205202499999997h13.385476933333333c0.35494737499999995 0 0.6955844166666666 0.14103344583333333 0.9467818749999999 0.39205202499999997 0.250686375 0.25101857916666664 0.39174537499999995 0.5915022958333334 0.39174537499999995 0.9465007791666665v8.031316825Z" stroke-width="2.67"></path><path stroke="#191919" stroke-linecap="round" stroke-linejoin="round" d="M56.09880654166666 10.5867079375v8.031316825h-8.031163499999998V7.909602329166666h5.354109c0.7098947499999999 0 1.3909132916666667 0.28206689166666665 1.8930526666666665 0.7841040499999999 0.5018838333333333 0.5020627125 0.7840018333333333 1.1829790375 0.7840018333333333 1.893001558333333Z" stroke-width="2.67"></path><path stroke="#191919" stroke-linecap="round" stroke-linejoin="round" d="M56.09880654166666 18.618050316666665h-8.031163499999998v10.708422433333332h8.031163499999998V18.618050316666665Z" stroke-width="2.67"></path><path stroke="#191919" stroke-linecap="round" stroke-linejoin="round" d="M56.09880654166666 29.326472749999997h-8.031163499999998v10.708473541666667h8.031163499999998v-10.708473541666667Z" stroke-width="2.67"></path><path stroke="#191919" stroke-linecap="round" stroke-linejoin="round" d="M56.09880654166666 40.034946291666664v8.031163499999998c0 0.7098947499999999 -0.282118 1.3911688333333332 -0.7840018333333333 1.8930526666666665 -0.5021393749999999 0.5018838333333333 -1.1831579166666666 0.7840018333333333 -1.8930526666666665 0.7840018333333333h-5.354109v-10.708218h8.031163499999998Z" stroke-width="2.67"></path></svg>